<svg xmlns:xlink="http://www.w3.org/1999/xlink" xmlns="http://www.w3.org/2000/svg" width="318" viewBox="0 0 318 101" style="fill-opacity:1; color-rendering:auto; color-interpolation:auto; text-rendering:auto; stroke:black; stroke-linecap:square; stroke-miterlimit:10; shape-rendering:auto; stroke-opacity:1; fill:black; stroke-dasharray:none; font-weight:normal; stroke-width:1; font-family:'Open Sans'; font-style:normal; stroke-linejoin:miter; font-size:12; stroke-dashoffset:0; image-rendering:auto;" height="101" class="cas-substance-image"><svg class="cas-substance-single-component"><rect y="0" x="0" width="318" stroke="none" ry="7" rx="7" height="101" fill="white" class="cas-substance-group"/><svg y="0" x="0" width="318" viewBox="0 0 318 101" style="fill:black;" height="101" class="cas-substance-single-component-image"><svg><g><g transform="translate(159,52)" style="text-rendering:geometricPrecision; color-rendering:optimizeQuality; color-interpolation:linearRGB; stroke-linecap:butt; image-rendering:optimizeQuality;"><line y2="-3.226" y1="-15" x2="-98.3355" x1="-77.943" style="fill:none;"/><line y2="-38.6484" y1="-13.9896" x2="-76.193" x1="-76.193" style="fill:none;"/><line y2="-38.6484" y1="-13.9896" x2="-79.693" x1="-79.693" style="fill:none;"/><line y2="0" y1="-15" x2="-51.963" x1="-77.943" style="fill:none;"/><line y2="-15" y1="-3.2414" x2="-129.903" x1="-109.5371" style="fill:none;"/><line y2="0" y1="-15" x2="-155.886" x1="-129.903" style="fill:none;"/><line y2="0" y1="-15" x2="51.963" x1="25.98" style="fill:none;"/><line y2="0" y1="-15" x2="0" x1="25.98" style="fill:none;"/><line y2="-15" y1="0" x2="77.943" x1="51.963" style="fill:none;"/><line y2="-3.2414" y1="-15" x2="98.3089" x1="77.943" style="fill:none;"/><line y2="-38.6484" y1="-13.9896" x2="79.693" x1="79.693" style="fill:none;"/><line y2="-38.6484" y1="-13.9896" x2="76.193" x1="76.193" style="fill:none;"/><line y2="-15" y1="-3.226" x2="129.903" x1="109.5105" style="fill:none;"/><line y2="0" y1="-15" x2="155.886" x1="129.903" style="fill:none;"/><line y2="-15" y1="0" x2="-25.98" x1="-51.963" style="fill:none;"/><line y2="-10.9585" y1="2.0209" x2="-25.9802" x1="-48.4631" style="fill:none;"/><line y2="30" y1="0" x2="-51.963" x1="-51.963" style="fill:none;"/><line y2="0" y1="-15" x2="0" x1="-25.98" style="fill:none;"/><line y2="45" y1="30" x2="-25.98" x1="-51.963" style="fill:none;"/><line y2="40.9585" y1="27.9791" x2="-25.9802" x1="-48.4631" style="fill:none;"/><line y2="30" y1="0" x2="0" x1="0" style="fill:none;"/><line y2="27.9793" y1="2.0207" x2="-3.5" x1="-3.5" style="fill:none;"/><line y2="30" y1="45" x2="0" x1="-25.98" style="fill:none;"/><path style="fill:none; stroke-miterlimit:5;" d="M-78.376 -14.75 L-77.943 -15 L-77.51 -14.75"/></g><g transform="translate(159,52)" style="stroke-linecap:butt; fill:rgb(230,0,0); text-rendering:geometricPrecision; color-rendering:optimizeQuality; image-rendering:optimizeQuality; font-family:'Open Sans'; stroke:rgb(230,0,0); color-interpolation:linearRGB; stroke-miterlimit:5;"><path style="stroke:none;" d="M-99.9855 -0.0703 Q-99.9855 1.9922 -101.0246 3.1719 Q-102.0636 4.3516 -103.9074 4.3516 Q-105.798 4.3516 -106.8292 3.1875 Q-107.8605 2.0234 -107.8605 -0.0859 Q-107.8605 -2.1797 -106.8292 -3.3281 Q-105.798 -4.4766 -103.9074 -4.4766 Q-102.048 -4.4766 -101.0167 -3.3047 Q-99.9855 -2.1328 -99.9855 -0.0703 ZM-106.8136 -0.0703 Q-106.8136 1.6641 -106.0714 2.5703 Q-105.3292 3.4766 -103.9074 3.4766 Q-102.4855 3.4766 -101.7589 2.5781 Q-101.0324 1.6797 -101.0324 -0.0703 Q-101.0324 -1.8047 -101.7589 -2.6953 Q-102.4855 -3.5859 -103.9074 -3.5859 Q-105.3292 -3.5859 -106.0714 -2.6875 Q-106.8136 -1.7891 -106.8136 -0.0703 Z"/><path style="stroke:none;" d="M-74.0055 -45.0703 Q-74.0055 -43.0078 -75.0446 -41.8281 Q-76.0836 -40.6484 -77.9274 -40.6484 Q-79.818 -40.6484 -80.8493 -41.8125 Q-81.8805 -42.9766 -81.8805 -45.0859 Q-81.8805 -47.1797 -80.8493 -48.3281 Q-79.818 -49.4766 -77.9274 -49.4766 Q-76.068 -49.4766 -75.0368 -48.3047 Q-74.0055 -47.1328 -74.0055 -45.0703 ZM-80.8336 -45.0703 Q-80.8336 -43.3359 -80.0914 -42.4297 Q-79.3493 -41.5234 -77.9274 -41.5234 Q-76.5055 -41.5234 -75.7789 -42.4219 Q-75.0524 -43.3203 -75.0524 -45.0703 Q-75.0524 -46.8047 -75.7789 -47.6953 Q-76.5055 -48.5859 -77.9274 -48.5859 Q-79.3493 -48.5859 -80.0914 -47.6875 Q-80.8336 -46.7891 -80.8336 -45.0703 Z"/><path style="fill:none; stroke:black;" d="M-129.47 -14.75 L-129.903 -15 L-130.336 -14.75"/><path style="fill:none; stroke:black;" d="M26.413 -14.75 L25.98 -15 L25.547 -14.75"/><path style="fill:none; stroke:black;" d="M51.53 -0.25 L51.963 0 L52.396 -0.25"/><path style="fill:none; stroke:black;" d="M77.51 -14.75 L77.943 -15 L78.376 -14.75"/><path style="stroke:none;" d="M107.8605 -0.0703 Q107.8605 1.9922 106.8214 3.1719 Q105.7824 4.3516 103.9386 4.3516 Q102.048 4.3516 101.0167 3.1875 Q99.9855 2.0234 99.9855 -0.0859 Q99.9855 -2.1797 101.0167 -3.3281 Q102.048 -4.4766 103.9386 -4.4766 Q105.798 -4.4766 106.8292 -3.3047 Q107.8605 -2.1328 107.8605 -0.0703 ZM101.0324 -0.0703 Q101.0324 1.6641 101.7746 2.5703 Q102.5167 3.4766 103.9386 3.4766 Q105.3605 3.4766 106.0871 2.5781 Q106.8136 1.6797 106.8136 -0.0703 Q106.8136 -1.8047 106.0871 -2.6953 Q105.3605 -3.5859 103.9386 -3.5859 Q102.5167 -3.5859 101.7746 -2.6875 Q101.0324 -1.7891 101.0324 -0.0703 Z"/><path style="stroke:none;" d="M81.8805 -45.0703 Q81.8805 -43.0078 80.8414 -41.8281 Q79.8024 -40.6484 77.9586 -40.6484 Q76.068 -40.6484 75.0368 -41.8125 Q74.0055 -42.9766 74.0055 -45.0859 Q74.0055 -47.1797 75.0368 -48.3281 Q76.068 -49.4766 77.9586 -49.4766 Q79.818 -49.4766 80.8493 -48.3047 Q81.8805 -47.1328 81.8805 -45.0703 ZM75.0524 -45.0703 Q75.0524 -43.3359 75.7946 -42.4297 Q76.5368 -41.5234 77.9586 -41.5234 Q79.3805 -41.5234 80.1071 -42.4219 Q80.8336 -43.3203 80.8336 -45.0703 Q80.8336 -46.8047 80.1071 -47.6953 Q79.3805 -48.5859 77.9586 -48.5859 Q76.5368 -48.5859 75.7946 -47.6875 Q75.0524 -46.7891 75.0524 -45.0703 Z"/><path style="fill:none; stroke:black;" d="M129.47 -14.75 L129.903 -15 L130.336 -14.75"/><path style="fill:none; stroke:black;" d="M-51.53 -0.25 L-51.963 0 L-51.963 0.5"/><path style="fill:none; stroke:black;" d="M-26.413 -14.75 L-25.98 -15 L-25.547 -14.75"/><path style="fill:none; stroke:black;" d="M-51.963 29.5 L-51.963 30 L-51.53 30.25"/><path style="fill:none; stroke:black;" d="M-0 0.5 L0 0 L0.433 -0.25"/><path style="fill:none; stroke:black;" d="M-26.413 44.75 L-25.98 45 L-25.547 44.75"/><path style="fill:none; stroke:black;" d="M0 29.5 L0 30 L-0.433 30.25"/></g></g></svg></svg></svg></svg>