<svg xmlns:xlink="http://www.w3.org/1999/xlink" xmlns="http://www.w3.org/2000/svg" width="184" viewBox="0 0 184 62" style="fill-opacity:1; color-rendering:auto; color-interpolation:auto; text-rendering:auto; stroke:black; stroke-linecap:square; stroke-miterlimit:10; shape-rendering:auto; stroke-opacity:1; fill:black; stroke-dasharray:none; font-weight:normal; stroke-width:1; font-family:'Open Sans'; font-style:normal; stroke-linejoin:miter; font-size:12; stroke-dashoffset:0; image-rendering:auto;" height="62" class="cas-substance-image"><svg class="cas-substance-single-component"><rect y="0" x="0" width="184" stroke="none" ry="7" rx="7" height="62" fill="white" class="cas-substance-group"/><svg y="0" x="0" width="184" viewBox="0 0 184 62" style="fill:black;" height="62" class="cas-substance-single-component-image"><svg><g><g transform="translate(92,33)" style="text-rendering:geometricPrecision; color-rendering:optimizeQuality; color-interpolation:linearRGB; stroke-linecap:butt; image-rendering:optimizeQuality;"><line y2="-10.536" y1="-25.536" x2="10.749" x1="-15.231" style="fill:none;"/><line y2="-13.4711" y1="-25.536" x2="-36.1274" x1="-15.231" style="fill:none;"/><line y2="-22.3474" y1="-10.536" x2="31.2088" x1="10.749" style="fill:none;"/><line y2="12.9874" y1="-11.5464" x2="8.999" x1="8.999" style="fill:none;"/><line y2="12.9874" y1="-11.5463" x2="12.499" x1="12.499" style="fill:none;"/><line y2="-10.536" y1="-22.3574" x2="62.712" x1="42.2374" style="fill:none;"/><line y2="-25.536" y1="-10.536" x2="88.692" x1="62.712" style="fill:none;"/><line y2="-22.74" y1="-12.8419" x2="-68.619" x1="-46.3896" style="fill:none;"/><line y2="12.9037" y1="-4.3907" x2="-43.6764" x1="-41.8574" style="fill:none;"/><line y2="-0.444" y1="-22.74" x2="-88.692" x1="-68.619" style="fill:none;"/><line y2="0.396" y1="-18.8964" x2="-84.7388" x1="-67.3699" style="fill:none;"/><line y2="25.536" y1="20.4272" x2="-73.692" x1="-49.6569" style="fill:none;"/><line y2="21.6924" y1="17.0037" x2="-72.4431" x1="-50.3845" style="fill:none;"/><line y2="25.536" y1="-0.444" x2="-73.692" x1="-88.692" style="fill:none;"/><path style="fill:none; stroke-miterlimit:5;" d="M-14.798 -25.286 L-15.231 -25.536 L-15.664 -25.286"/><path style="fill:none; stroke-miterlimit:5;" d="M10.316 -10.786 L10.749 -10.536 L11.182 -10.786"/></g><g transform="translate(92,33)" style="stroke-linecap:butt; fill:rgb(230,0,0); text-rendering:geometricPrecision; color-rendering:optimizeQuality; image-rendering:optimizeQuality; font-family:'Open Sans'; stroke:rgb(230,0,0); color-interpolation:linearRGB; stroke-miterlimit:5;"><path style="stroke:none;" d="M40.6695 -25.6063 Q40.6695 -23.5438 39.6304 -22.3641 Q38.5914 -21.1844 36.7476 -21.1844 Q34.857 -21.1844 33.8258 -22.3485 Q32.7945 -23.5126 32.7945 -25.6219 Q32.7945 -27.7157 33.8258 -28.8641 Q34.857 -30.0126 36.7476 -30.0126 Q38.607 -30.0126 39.6383 -28.8407 Q40.6695 -27.6688 40.6695 -25.6063 ZM33.8414 -25.6063 Q33.8414 -23.8719 34.5836 -22.9657 Q35.3258 -22.0594 36.7476 -22.0594 Q38.1695 -22.0594 38.8961 -22.9579 Q39.6226 -23.8563 39.6226 -25.6063 Q39.6226 -27.3407 38.8961 -28.2313 Q38.1695 -29.1219 36.7476 -29.1219 Q35.3258 -29.1219 34.5836 -28.2235 Q33.8414 -27.3251 33.8414 -25.6063 Z"/><path style="stroke:none;" d="M14.6865 19.3937 Q14.6865 21.4562 13.6474 22.6359 Q12.6084 23.8156 10.7646 23.8156 Q8.874 23.8156 7.8427 22.6515 Q6.8115 21.4874 6.8115 19.3781 Q6.8115 17.2843 7.8427 16.1359 Q8.874 14.9874 10.7646 14.9874 Q12.624 14.9874 13.6552 16.1593 Q14.6865 17.3312 14.6865 19.3937 ZM7.8584 19.3937 Q7.8584 21.1281 8.6006 22.0343 Q9.3427 22.9406 10.7646 22.9406 Q12.1865 22.9406 12.9131 22.0421 Q13.6396 21.1437 13.6396 19.3937 Q13.6396 17.6593 12.9131 16.7687 Q12.1865 15.8781 10.7646 15.8781 Q9.3427 15.8781 8.6006 16.7765 Q7.8584 17.6749 7.8584 19.3937 Z"/><path style="fill:none; stroke:black;" d="M62.279 -10.786 L62.712 -10.536 L63.145 -10.786"/><path style="fill:rgb(0,5,255); stroke:none;" d="M-37.8594 -6.3798 L-39.0001 -6.3798 L-43.6876 -13.5673 L-43.7344 -13.5673 Q-43.6407 -12.3016 -43.6407 -11.2548 L-43.6407 -6.3798 L-44.5626 -6.3798 L-44.5626 -14.9423 L-43.4376 -14.9423 L-38.7657 -7.786 L-38.7188 -7.786 Q-38.7188 -7.9423 -38.7657 -8.8016 Q-38.8126 -9.661 -38.7969 -10.036 L-38.7969 -14.9423 L-37.8594 -14.9423 L-37.8594 -6.3798 Z"/><path style="fill:none; stroke:black;" d="M-68.1622 -22.5366 L-68.619 -22.74 L-68.9535 -22.3684"/><path style="fill:rgb(0,5,255); stroke:none;" d="M-40.9974 23.4552 L-42.1381 23.4552 L-46.8256 16.2677 L-46.8724 16.2677 Q-46.7787 17.5334 -46.7787 18.5802 L-46.7787 23.4552 L-47.7006 23.4552 L-47.7006 14.8927 L-46.5756 14.8927 L-41.9037 22.049 L-41.8568 22.049 Q-41.8568 21.8927 -41.9037 21.0334 Q-41.9506 20.174 -41.9349 19.799 L-41.9349 14.8927 L-40.9974 14.8927 L-40.9974 23.4552 Z"/><path style="fill:none; stroke:black;" d="M-88.3575 -0.8156 L-88.692 -0.444 L-88.442 -0.011"/><path style="fill:none; stroke:black;" d="M-73.2029 25.432 L-73.692 25.536 L-73.942 25.103"/></g></g></svg></svg></svg></svg>