<svg xmlns:xlink="http://www.w3.org/1999/xlink" xmlns="http://www.w3.org/2000/svg" width="163" viewBox="0 0 163 101" style="fill-opacity:1; color-rendering:auto; color-interpolation:auto; text-rendering:auto; stroke:black; stroke-linecap:square; stroke-miterlimit:10; shape-rendering:auto; stroke-opacity:1; fill:black; stroke-dasharray:none; font-weight:normal; stroke-width:1; font-family:'Open Sans'; font-style:normal; stroke-linejoin:miter; font-size:12; stroke-dashoffset:0; image-rendering:auto;" height="101" class="cas-substance-image"><svg class="cas-substance-single-component"><rect y="0" x="0" width="163" stroke="none" ry="7" rx="7" height="101" fill="white" class="cas-substance-group"/><svg y="0" x="0" width="163" viewBox="0 0 163 101" style="fill:black;" height="101" class="cas-substance-single-component-image"><svg><g><g transform="translate(81,49)" style="text-rendering:geometricPrecision; color-rendering:optimizeQuality; color-interpolation:linearRGB; stroke-linecap:butt; image-rendering:optimizeQuality;"><line y2="3.1888" y1="15" x2="20.457" x1="0" style="fill:none;"/><line y2="38.5938" y1="13.9896" x2="-1.75" x1="-1.75" style="fill:none;"/><line y2="38.5938" y1="13.9896" x2="1.75" x1="1.75" style="fill:none;"/><line y2="0" y1="15" x2="-25.98" x1="0" style="fill:none;"/><line y2="15" y1="3.1784" x2="51.963" x1="31.4856" style="fill:none;"/><line y2="0" y1="15" x2="77.943" x1="51.963" style="fill:none;"/><line y2="15" y1="0" x2="-51.963" x1="-25.98" style="fill:none;"/><line y2="-30" y1="0" x2="-25.98" x1="-25.98" style="fill:none;"/><line y2="-27.9793" y1="-2.0207" x2="-29.48" x1="-29.48" style="fill:none;"/><line y2="0" y1="15" x2="-77.943" x1="-51.963" style="fill:none;"/><line y2="-45" y1="-30" x2="-51.963" x1="-25.98" style="fill:none;"/><line y2="-30" y1="0" x2="-77.943" x1="-77.943" style="fill:none;"/><line y2="-30" y1="-45" x2="-77.943" x1="-51.963" style="fill:none;"/><path style="fill:none; stroke-miterlimit:5;" d="M0.433 14.75 L0 15 L-0.433 14.75"/></g><g transform="translate(81,49)" style="stroke-linecap:butt; fill:rgb(230,0,0); text-rendering:geometricPrecision; color-rendering:optimizeQuality; image-rendering:optimizeQuality; font-family:'Open Sans'; stroke:rgb(230,0,0); color-interpolation:linearRGB; stroke-miterlimit:5;"><path style="stroke:none;" d="M29.9175 -0.0703 Q29.9175 1.9922 28.8784 3.1719 Q27.8394 4.3516 25.9956 4.3516 Q24.105 4.3516 23.0737 3.1875 Q22.0425 2.0234 22.0425 -0.0859 Q22.0425 -2.1797 23.0737 -3.3281 Q24.105 -4.4766 25.9956 -4.4766 Q27.855 -4.4766 28.8862 -3.3047 Q29.9175 -2.1328 29.9175 -0.0703 ZM23.0894 -0.0703 Q23.0894 1.6641 23.8316 2.5703 Q24.5737 3.4766 25.9956 3.4766 Q27.4175 3.4766 28.1441 2.5781 Q28.8706 1.6797 28.8706 -0.0703 Q28.8706 -1.8047 28.1441 -2.6953 Q27.4175 -3.5859 25.9956 -3.5859 Q24.5737 -3.5859 23.8316 -2.6875 Q23.0894 -1.7891 23.0894 -0.0703 Z"/><path style="fill:rgb(0,5,255); stroke:none;" d="M3.3516 49.1562 L2.2109 49.1562 L-2.4766 41.9688 L-2.5234 41.9688 Q-2.4297 43.2344 -2.4297 44.2812 L-2.4297 49.1562 L-3.3516 49.1562 L-3.3516 40.5938 L-2.2266 40.5938 L2.4453 47.75 L2.4922 47.75 Q2.4922 47.5938 2.4453 46.7344 Q2.3984 45.875 2.4141 45.5 L2.4141 40.5938 L3.3516 40.5938 L3.3516 49.1562 Z"/><path style="fill:rgb(0,5,255); stroke:none;" d="M10.8672 49.1562 L9.8672 49.1562 L9.8672 45.125 L5.3516 45.125 L5.3516 49.1562 L4.3516 49.1562 L4.3516 40.5938 L5.3516 40.5938 L5.3516 44.2344 L9.8672 44.2344 L9.8672 40.5938 L10.8672 40.5938 L10.8672 49.1562 Z"/><path style="fill:none; stroke:black;" d="M51.53 14.75 L51.963 15 L52.396 14.75"/><path style="fill:none; stroke:black;" d="M-25.98 -0.5 L-25.98 0 L-25.547 0.25"/><path style="fill:none; stroke:black;" d="M-51.53 14.75 L-51.963 15 L-52.396 14.75"/><path style="fill:none; stroke:black;" d="M-25.98 -29.5 L-25.98 -30 L-26.413 -30.25"/><path style="fill:none; stroke:black;" d="M-77.51 0.25 L-77.943 0 L-77.943 -0.5"/><path style="fill:none; stroke:black;" d="M-51.53 -44.75 L-51.963 -45 L-52.396 -44.75"/><path style="fill:none; stroke:black;" d="M-77.943 -29.5 L-77.943 -30 L-77.51 -30.25"/></g></g></svg></svg></svg></svg>