<svg xmlns="http://www.w3.org/2000/svg" width="100" height="100" x="0" y="0" viewBox="0 0 322.487 320" font-family="sans-serif" stroke="rgb(0,0,0)" stroke-width="2" stroke-linecap="round">
<line x1="236.6" y1="53.5" x2="224.5" y2="46.5" opacity="1.0" stroke="rgb(0,0,0)" stroke-width="2.0" />
<line x1="201.9" y1="46.5" x2="178.6" y2="60.0" opacity="1.0" stroke="rgb(0,0,0)" stroke-width="2.0" />
<line x1="177.1" y1="62.6" x2="153.7" y2="49.1" opacity="1.0" stroke="rgb(0,0,0)" stroke-width="2.0" />
<line x1="180.1" y1="57.4" x2="156.7" y2="43.9" opacity="1.0" stroke="rgb(0,0,0)" stroke-width="2.0" />
<line x1="178.6" y1="60.0" x2="178.6" y2="100.0" opacity="1.0" stroke="rgb(0,0,0)" stroke-width="2.0" />
<polygon points="178.564065 100.000000 145.923048 123.464102 141.923048 116.535898 " stroke-width="2.000000" fill="rgb(0,0,0)" stroke="rgb(0,0,0)" />
<line x1="143.9" y1="120.0" x2="109.3" y2="100.0" opacity="1.0" stroke="rgb(0,0,0)" stroke-width="2.0" />
<line x1="178.6" y1="100.0" x2="201.9" y2="113.5" opacity="1.0" stroke="rgb(0,0,0)" stroke-width="2.0" />
<line x1="213.2" y1="133.0" x2="213.2" y2="160.0" opacity="1.0" stroke="rgb(0,0,0)" stroke-width="2.0" />
<line x1="214.7" y1="162.6" x2="191.3" y2="176.1" opacity="1.0" stroke="rgb(0,0,0)" stroke-width="2.0" />
<line x1="211.7" y1="157.4" x2="188.3" y2="170.9" opacity="1.0" stroke="rgb(0,0,0)" stroke-width="2.0" />
<line x1="213.2" y1="160.0" x2="247.8" y2="180.0" opacity="1.0" stroke="rgb(0,0,0)" stroke-width="2.0" />
<line x1="247.8" y1="180.0" x2="247.8" y2="220.0" opacity="1.0" stroke="rgb(0,0,0)" stroke-width="2.0" />
<line x1="247.8" y1="220.0" x2="213.2" y2="240.0" opacity="1.0" stroke="rgb(0,0,0)" stroke-width="2.0" />
<line x1="211.7" y1="242.6" x2="188.3" y2="229.1" opacity="1.0" stroke="rgb(0,0,0)" stroke-width="2.0" />
<line x1="214.7" y1="237.4" x2="191.3" y2="223.9" opacity="1.0" stroke="rgb(0,0,0)" stroke-width="2.0" />
<line x1="213.2" y1="240.0" x2="213.2" y2="267.0" opacity="1.0" stroke="rgb(0,0,0)" stroke-width="2.0" />
<polygon points="247.846097 180.000000 269.055578 163.135898 273.055578 170.064102 " stroke-width="2.000000" fill="rgb(0,0,0)" stroke="rgb(0,0,0)" />
<line x1="109.3" y1="60.0" x2="109.3" y2="100.0" opacity="1.0" stroke="rgb(0,0,0)" stroke-width="2.0" />
<line x1="102.1" y1="66.0" x2="102.1" y2="94.0" opacity="1.0" stroke="rgb(0,0,0)" stroke-width="2.0" />
<line x1="109.3" y1="100.0" x2="74.6" y2="120.0" opacity="1.0" stroke="rgb(0,0,0)" stroke-width="2.0" />
<line x1="74.6" y1="120.0" x2="40.0" y2="100.0" opacity="1.0" stroke="rgb(0,0,0)" stroke-width="2.0" />
<line x1="73.0" y1="110.8" x2="48.8" y2="96.8" opacity="1.0" stroke="rgb(0,0,0)" stroke-width="2.0" />
<line x1="40.0" y1="100.0" x2="40.0" y2="60.0" opacity="1.0" stroke="rgb(0,0,0)" stroke-width="2.0" />
<line x1="40.0" y1="60.0" x2="74.6" y2="40.0" opacity="1.0" stroke="rgb(0,0,0)" stroke-width="2.0" />
<line x1="48.8" y1="63.2" x2="73.0" y2="49.2" opacity="1.0" stroke="rgb(0,0,0)" stroke-width="2.0" />
<line x1="74.6" y1="40.0" x2="109.3" y2="60.0" opacity="1.0" stroke="rgb(0,0,0)" stroke-width="2.0" />
<text x="243.846097" y="68.000000" fill="rgb(102,102,102)" stroke-width="0" font-weight="bold" font-size="16">CH</text>
<text x="267.846097" y="71.680000" fill="rgb(102,102,102)" stroke-width="0" font-weight="bold" font-size="13">3</text>
<text x="207.205081" y="48.000000" fill="rgb(255,12,12)" stroke-width="0" font-weight="bold" font-size="16">O</text>
<text x="137.923048" y="48.000000" fill="rgb(255,12,12)" stroke-width="0" font-weight="bold" font-size="16">O</text>
<text x="207.205081" y="128.000000" fill="rgb(12,12,255)" stroke-width="0" font-weight="bold" font-size="16">NH</text>
<text x="172.564065" y="188.000000" fill="rgb(255,12,12)" stroke-width="0" font-weight="bold" font-size="16">O</text>
<text x="172.564065" y="228.000000" fill="rgb(255,12,12)" stroke-width="0" font-weight="bold" font-size="16">O</text>
<text x="207.205081" y="288.000000" fill="rgb(255,12,12)" stroke-width="0" font-weight="bold" font-size="16">OH</text>
<text x="278.487113" y="168.000000" fill="rgb(12,12,255)" stroke-width="0" font-weight="bold" font-size="16">NH</text>
<text x="302.487113" y="171.680000" fill="rgb(12,12,255)" stroke-width="0" font-weight="bold" font-size="13">2</text>
</svg>