<svg xmlns:xlink="http://www.w3.org/1999/xlink" xmlns="http://www.w3.org/2000/svg" width="292" viewBox="0 0 292 86" style="fill-opacity:1; color-rendering:auto; color-interpolation:auto; text-rendering:auto; stroke:black; stroke-linecap:square; stroke-miterlimit:10; shape-rendering:auto; stroke-opacity:1; fill:black; stroke-dasharray:none; font-weight:normal; stroke-width:1; font-family:'Open Sans'; font-style:normal; stroke-linejoin:miter; font-size:12; stroke-dashoffset:0; image-rendering:auto;" height="86" class="cas-substance-image"><svg class="cas-substance-single-component"><rect y="0" x="0" width="292" stroke="none" ry="7" rx="7" height="86" fill="white" class="cas-substance-group"/><svg y="0" x="0" width="292" viewBox="0 0 292 86" style="fill:black;" height="86" class="cas-substance-single-component-image"><svg><g><g transform="translate(146,41)" style="text-rendering:geometricPrecision; color-rendering:optimizeQuality; color-interpolation:linearRGB; stroke-linecap:butt; image-rendering:optimizeQuality;"><line y2="-7.5" y1="7.5" x2="-38.97" x1="-64.953" style="fill:none;"/><line y2="-4.3214" y1="7.5" x2="-85.4276" x1="-64.953" style="fill:none;"/><line y2="31.0234" y1="6.4896" x2="-66.703" x1="-66.703" style="fill:none;"/><line y2="31.0234" y1="6.4897" x2="-63.203" x1="-63.203" style="fill:none;"/><line y2="-22.5" y1="-7.5" x2="-12.99" x1="-38.97" style="fill:none;"/><line y2="-25.5311" y1="-10.5311" x2="-14.74" x1="-40.72" style="fill:none;"/><line y2="-19.4689" y1="-4.4689" x2="-11.24" x1="-37.22" style="fill:none;"/><line y2="7.5" y1="-4.3112" x2="-116.913" x1="-96.456" style="fill:none;"/><line y2="-37.5" y1="-22.5" x2="12.99" x1="-12.99" style="fill:none;"/><line y2="-7.5" y1="7.5" x2="-142.893" x1="-116.913" style="fill:none;"/><line y2="-22.5" y1="-37.5" x2="38.97" x1="12.99" style="fill:none;"/><line y2="-37.5" y1="-22.5" x2="64.953" x1="38.97" style="fill:none;"/><line y2="-22.5" y1="-37.5" x2="90.933" x1="64.953" style="fill:none;"/><line y2="-37.5" y1="-22.5" x2="116.913" x1="90.933" style="fill:none;"/><line y2="-22.5" y1="-37.5" x2="142.893" x1="116.913" style="fill:none;"/><path style="fill:none; stroke-miterlimit:5;" d="M-64.52 7.25 L-64.953 7.5 L-65.386 7.25"/><path style="fill:none; stroke-miterlimit:5;" d="M-39.403 -7.25 L-38.97 -7.5 L-38.537 -7.75"/></g><g transform="translate(146,41)" style="stroke-linecap:butt; fill:rgb(230,0,0); text-rendering:geometricPrecision; color-rendering:optimizeQuality; image-rendering:optimizeQuality; font-family:'Open Sans'; stroke:rgb(230,0,0); color-interpolation:linearRGB; stroke-miterlimit:5;"><path style="stroke:none;" d="M-86.9955 -7.5703 Q-86.9955 -5.5078 -88.0346 -4.3281 Q-89.0736 -3.1484 -90.9174 -3.1484 Q-92.808 -3.1484 -93.8392 -4.3125 Q-94.8705 -5.4766 -94.8705 -7.5859 Q-94.8705 -9.6797 -93.8392 -10.8281 Q-92.808 -11.9766 -90.9174 -11.9766 Q-89.058 -11.9766 -88.0267 -10.8047 Q-86.9955 -9.6328 -86.9955 -7.5703 ZM-93.8236 -7.5703 Q-93.8236 -5.8359 -93.0814 -4.9297 Q-92.3392 -4.0234 -90.9174 -4.0234 Q-89.4955 -4.0234 -88.7689 -4.9219 Q-88.0424 -5.8203 -88.0424 -7.5703 Q-88.0424 -9.3047 -88.7689 -10.1953 Q-89.4955 -11.0859 -90.9174 -11.0859 Q-92.3392 -11.0859 -93.0814 -10.1875 Q-93.8236 -9.2891 -93.8236 -7.5703 Z"/><path style="stroke:none;" d="M-61.0155 37.4297 Q-61.0155 39.4922 -62.0546 40.6719 Q-63.0936 41.8516 -64.9374 41.8516 Q-66.828 41.8516 -67.8593 40.6875 Q-68.8905 39.5234 -68.8905 37.4141 Q-68.8905 35.3203 -67.8593 34.1719 Q-66.828 33.0234 -64.9374 33.0234 Q-63.078 33.0234 -62.0468 34.1953 Q-61.0155 35.3672 -61.0155 37.4297 ZM-67.8436 37.4297 Q-67.8436 39.1641 -67.1014 40.0703 Q-66.3593 40.9766 -64.9374 40.9766 Q-63.5155 40.9766 -62.7889 40.0781 Q-62.0624 39.1797 -62.0624 37.4297 Q-62.0624 35.6953 -62.7889 34.8047 Q-63.5155 33.9141 -64.9374 33.9141 Q-66.3593 33.9141 -67.1014 34.8125 Q-67.8436 35.7109 -67.8436 37.4297 Z"/><path style="fill:none; stroke:black;" d="M-116.48 7.25 L-116.913 7.5 L-117.346 7.25"/><path style="fill:none; stroke:black;" d="M12.557 -37.25 L12.99 -37.5 L13.423 -37.25"/><path style="fill:none; stroke:black;" d="M38.537 -22.75 L38.97 -22.5 L39.403 -22.75"/><path style="fill:none; stroke:black;" d="M64.52 -37.25 L64.953 -37.5 L65.386 -37.25"/><path style="fill:none; stroke:black;" d="M90.5 -22.75 L90.933 -22.5 L91.366 -22.75"/><path style="fill:none; stroke:black;" d="M116.48 -37.25 L116.913 -37.5 L117.346 -37.25"/></g></g></svg></svg></svg></svg>