<svg xmlns="http://www.w3.org/2000/svg" width="337.47" viewBox="0 0 11249 3716" text-rendering="auto" stroke-width="1" stroke-opacity="1" stroke-miterlimit="10" stroke-linejoin="miter" stroke-linecap="square" stroke-dashoffset="0" stroke-dasharray="none" stroke="black" shape-rendering="auto" image-rendering="auto" height="111.48" font-weight="normal" font-style="normal" font-size="12" font-family="'Dialog'" fill-opacity="1" fill="black" color-rendering="auto" color-interpolation="auto"><g><g stroke="white" fill="white"><rect y="0" x="0" width="11249" stroke="none" height="3716"/></g><g transform="translate(32866,32758)" text-rendering="geometricPrecision" stroke-width="44" stroke-linejoin="round" stroke-linecap="round"><line y2="-31419" y1="-30850" x2="-28146" x1="-29134" fill="none"/><line y2="-31202" y1="-30775" x2="-28186" x1="-28926" fill="none"/><line y2="-30850" y1="-29715" x2="-29134" x1="-29134" fill="none"/><line y2="-30850" y1="-31419" x2="-27164" x1="-28146" fill="none"/><line y2="-29715" y1="-29146" x2="-29134" x1="-28146" fill="none"/><line y2="-29790" y1="-29362" x2="-28926" x1="-28186" fill="none"/><line y2="-29715" y1="-30850" x2="-27164" x1="-27164" fill="none"/><line y2="-29856" y1="-30708" x2="-27334" x1="-27334" fill="none"/><line y2="-29146" y1="-29715" x2="-28146" x1="-27164" fill="none"/><line y2="-31376" y1="-30850" x2="-26257" x1="-27164" fill="none"/><line y2="-30850" y1="-31376" x2="-25350" x1="-26257" fill="none"/><line y2="-31376" y1="-30850" x2="-24442" x1="-25350" fill="none"/><line y2="-31376" y1="-30850" x2="-30041" x1="-29134" fill="none"/><line y2="-30960" y1="-31376" x2="-23723" x1="-24442" fill="none"/><line y2="-31376" y1="-30960" x2="-22628" x1="-23348" fill="none"/><line y2="-30850" y1="-31376" x2="-21721" x1="-22628" fill="none"/><line y2="-32202" y1="-31376" x2="-24512" x1="-24512" fill="none"/><line y2="-32202" y1="-31376" x2="-24373" x1="-24373" fill="none"/><line y2="-30960" y1="-31376" x2="-30760" x1="-30041" fill="none"/><line y2="-31376" y1="-30960" x2="-31855" x1="-31136" fill="none"/><line y2="-30850" y1="-31376" x2="-32762" x1="-31855" fill="none"/><line y2="-32202" y1="-31376" x2="-30110" x1="-30110" fill="none"/><line y2="-32202" y1="-31376" x2="-29972" x1="-29972" fill="none"/><text y="-30671" xml:space="preserve" x="-31101" stroke="none" font-size="433.3333" font-family="sans-serif">O</text><text y="-32242" xml:space="preserve" x="-30194" stroke="none" font-size="433.3333" font-family="sans-serif">O</text><text y="-30671" xml:space="preserve" x="-23688" stroke="none" font-size="433.3333" font-family="sans-serif">O</text><text y="-32242" xml:space="preserve" x="-24596" stroke="none" font-size="433.3333" font-family="sans-serif">O</text></g></g></svg>