<svg xmlns="http://www.w3.org/2000/svg" width="318.24" viewBox="0 0 10608 2283" text-rendering="auto" stroke-width="1" stroke-opacity="1" stroke-miterlimit="10" stroke-linejoin="miter" stroke-linecap="square" stroke-dashoffset="0" stroke-dasharray="none" stroke="black" shape-rendering="auto" image-rendering="auto" height="68.49" font-weight="normal" font-style="normal" font-size="12" font-family="'Dialog'" fill-opacity="1" fill="black" color-rendering="auto" color-interpolation="auto"><g><g stroke="white" fill="white"><rect y="0" x="0" width="10608" stroke="none" height="2283"/></g><g transform="translate(32866,32758)" text-rendering="geometricPrecision" stroke-width="44" stroke-linejoin="round" stroke-linecap="round"><line y2="-31899" y1="-31899" x2="-26132" x1="-27178" fill="none"/><line y2="-31988" y1="-31988" x2="-26132" x1="-27178" fill="none"/><line y2="-31809" y1="-31809" x2="-26132" x1="-27178" fill="none"/><line y2="-31899" y1="-31899" x2="-28227" x1="-27178" fill="none"/><line y2="-31376" y1="-31899" x2="-29134" x1="-28227" fill="none"/><line y2="-31899" y1="-31376" x2="-30041" x1="-29134" fill="none"/><line y2="-31376" y1="-31899" x2="-30948" x1="-30041" fill="none"/><line y2="-31899" y1="-31376" x2="-31855" x1="-30948" fill="none"/><line y2="-31376" y1="-31899" x2="-32762" x1="-31855" fill="none"/><line y2="-31899" y1="-31899" x2="-25084" x1="-26132" fill="none"/><line y2="-32315" y1="-31899" x2="-24364" x1="-25084" fill="none"/><line y2="-31899" y1="-32315" x2="-23270" x1="-23989" fill="none"/><line y2="-32422" y1="-31899" x2="-22362" x1="-23270" fill="none"/><line y2="-31070" y1="-31899" x2="-25014" x1="-25014" fill="none"/><line y2="-31070" y1="-31899" x2="-25153" x1="-25153" fill="none"/><text y="-32242" xml:space="preserve" x="-24330" stroke="none" font-size="433.3333" font-family="sans-serif">O</text><text y="-30671" xml:space="preserve" x="-25237" stroke="none" font-size="433.3333" font-family="sans-serif">O</text></g></g></svg>