<svg xmlns="http://www.w3.org/2000/svg" width="202.35" viewBox="0 0 6745 2514" text-rendering="auto" stroke-width="1" stroke-opacity="1" stroke-miterlimit="10" stroke-linejoin="miter" stroke-linecap="square" stroke-dashoffset="0" stroke-dasharray="none" stroke="black" shape-rendering="auto" image-rendering="auto" height="75.42" font-weight="normal" font-style="normal" font-size="12" font-family="'Dialog'" fill-opacity="1" fill="black" color-rendering="auto" color-interpolation="auto"><g><g stroke="white" fill="white"><rect y="0" x="0" width="6745" stroke="none" height="2514"/></g><g transform="translate(32866,32758)" text-rendering="geometricPrecision" stroke-width="44" stroke-linejoin="round" stroke-linecap="round"><line y2="-30512" y1="-31448" x2="-31159" x1="-30836" fill="none"/><line y2="-31812" y1="-32277" x2="-30948" x1="-31549" fill="none"/><line y2="-30512" y1="-30512" x2="-32404" x1="-31159" fill="none"/><line y2="-30680" y1="-30680" x2="-32248" x1="-31315" fill="none"/><line y2="-32283" y1="-31668" x2="-31925" x1="-32762" fill="none"/><line y2="-32069" y1="-31607" x2="-31930" x1="-32554" fill="none"/><line y2="-31668" y1="-30512" x2="-32762" x1="-32404" fill="none"/><line y2="-32190" y1="-31774" x2="-29853" x1="-30573" fill="none"/><line y2="-31668" y1="-32190" x2="-28946" x1="-29853" fill="none"/><line y2="-32084" y1="-31668" x2="-28227" x1="-28946" fill="none"/><line y2="-31668" y1="-32084" x2="-27132" x1="-27848" fill="none"/><line y2="-32190" y1="-31668" x2="-26225" x1="-27132" fill="none"/><line y2="-30838" y1="-31668" x2="-28874" x1="-28874" fill="none"/><line y2="-30838" y1="-31668" x2="-29016" x1="-29016" fill="none"/><text y="-32011" xml:space="preserve" x="-28189" stroke="none" font-size="433.3333" font-family="sans-serif">O</text><text y="-30440" xml:space="preserve" x="-29096" stroke="none" font-size="433.3333" font-family="sans-serif">O</text><text y="-31488" xml:space="preserve" x="-30911" stroke="none" font-size="433.3333" font-family="sans-serif">N</text><text y="-32242" xml:space="preserve" x="-31890" stroke="none" font-size="433.3333" font-family="sans-serif">N</text></g></g></svg>