<svg xmlns:xlink="http://www.w3.org/1999/xlink" xmlns="http://www.w3.org/2000/svg" width="215" viewBox="0 0 215 101" style="fill-opacity:1; color-rendering:auto; color-interpolation:auto; text-rendering:auto; stroke:black; stroke-linecap:square; stroke-miterlimit:10; shape-rendering:auto; stroke-opacity:1; fill:black; stroke-dasharray:none; font-weight:normal; stroke-width:1; font-family:'Open Sans'; font-style:normal; stroke-linejoin:miter; font-size:12; stroke-dashoffset:0; image-rendering:auto;" height="101" class="cas-substance-image"><svg class="cas-substance-single-component"><rect y="0" x="0" width="215" stroke="none" ry="7" rx="7" height="101" fill="white" class="cas-substance-group"/><svg y="0" x="0" width="215" viewBox="0 0 215 101" style="fill:black;" height="101" class="cas-substance-single-component-image"><svg><g><g transform="translate(107,49)" style="text-rendering:geometricPrecision; color-rendering:optimizeQuality; color-interpolation:linearRGB; stroke-linecap:butt; image-rendering:optimizeQuality;"><line y2="0" y1="15" x2="0" x1="-25.98" style="fill:none;"/><line y2="0" y1="15" x2="-51.963" x1="-25.98" style="fill:none;"/><line y2="15" y1="0" x2="25.98" x1="0" style="fill:none;"/><line y2="3.1886" y1="15" x2="46.4398" x1="25.98" style="fill:none;"/><line y2="38.5234" y1="13.9896" x2="24.23" x1="24.23" style="fill:none;"/><line y2="38.5234" y1="13.9897" x2="27.73" x1="27.73" style="fill:none;"/><line y2="15" y1="3.1786" x2="77.943" x1="57.4684" style="fill:none;"/><line y2="0" y1="15" x2="103.923" x1="77.943" style="fill:none;"/><line y2="15" y1="0" x2="-77.943" x1="-51.963" style="fill:none;"/><line y2="-30" y1="0" x2="-51.963" x1="-51.963" style="fill:none;"/><line y2="0" y1="15" x2="-103.923" x1="-77.943" style="fill:none;"/><line y2="-45" y1="-30" x2="-77.943" x1="-51.963" style="fill:none;"/><line y2="-30" y1="0" x2="-103.923" x1="-103.923" style="fill:none;"/><line y2="-30" y1="-45" x2="-103.923" x1="-77.943" style="fill:none;"/><path style="fill:none; stroke-miterlimit:5;" d="M-25.547 14.75 L-25.98 15 L-26.413 14.75"/><path style="fill:none; stroke-miterlimit:5;" d="M-0.433 0.25 L0 0 L0.433 0.25"/><path style="fill:none; stroke-miterlimit:5;" d="M25.547 14.75 L25.98 15 L26.413 14.75"/></g><g transform="translate(107,49)" style="stroke-linecap:butt; fill:rgb(230,0,0); text-rendering:geometricPrecision; color-rendering:optimizeQuality; image-rendering:optimizeQuality; font-family:'Open Sans'; stroke:rgb(230,0,0); color-interpolation:linearRGB; stroke-miterlimit:5;"><path style="stroke:none;" d="M55.9005 -0.0703 Q55.9005 1.9922 54.8614 3.1719 Q53.8224 4.3516 51.9786 4.3516 Q50.088 4.3516 49.0568 3.1875 Q48.0255 2.0234 48.0255 -0.0859 Q48.0255 -2.1797 49.0568 -3.3281 Q50.088 -4.4766 51.9786 -4.4766 Q53.838 -4.4766 54.8693 -3.3047 Q55.9005 -2.1328 55.9005 -0.0703 ZM49.0724 -0.0703 Q49.0724 1.6641 49.8146 2.5703 Q50.5568 3.4766 51.9786 3.4766 Q53.4005 3.4766 54.1271 2.5781 Q54.8536 1.6797 54.8536 -0.0703 Q54.8536 -1.8047 54.1271 -2.6953 Q53.4005 -3.5859 51.9786 -3.5859 Q50.5568 -3.5859 49.8146 -2.6875 Q49.0724 -1.7891 49.0724 -0.0703 Z"/><path style="stroke:none;" d="M29.9175 44.9297 Q29.9175 46.9922 28.8784 48.1719 Q27.8394 49.3516 25.9956 49.3516 Q24.105 49.3516 23.0737 48.1875 Q22.0425 47.0234 22.0425 44.9141 Q22.0425 42.8203 23.0737 41.6719 Q24.105 40.5234 25.9956 40.5234 Q27.855 40.5234 28.8862 41.6953 Q29.9175 42.8672 29.9175 44.9297 ZM23.0894 44.9297 Q23.0894 46.6641 23.8316 47.5703 Q24.5737 48.4766 25.9956 48.4766 Q27.4175 48.4766 28.1441 47.5781 Q28.8706 46.6797 28.8706 44.9297 Q28.8706 43.1953 28.1441 42.3047 Q27.4175 41.4141 25.9956 41.4141 Q24.5737 41.4141 23.8316 42.3125 Q23.0894 43.2109 23.0894 44.9297 Z"/><path style="fill:none; stroke:black;" d="M77.51 14.75 L77.943 15 L78.376 14.75"/><path style="fill:none; stroke:black;" d="M-77.51 14.75 L-77.943 15 L-78.376 14.75"/><path style="fill:none; stroke:black;" d="M-51.963 -29.5 L-51.963 -30 L-52.396 -30.25"/><path style="fill:none; stroke:black;" d="M-103.49 0.25 L-103.923 0 L-103.923 -0.5"/><path style="fill:none; stroke:black;" d="M-77.51 -44.75 L-77.943 -45 L-78.376 -44.75"/><path style="fill:none; stroke:black;" d="M-103.923 -29.5 L-103.923 -30 L-103.49 -30.25"/></g></g></svg></svg></svg></svg>