<svg xmlns="http://www.w3.org/2000/svg" width="228.6" viewBox="0 0 7620 3716" text-rendering="auto" stroke-width="1" stroke-opacity="1" stroke-miterlimit="10" stroke-linejoin="miter" stroke-linecap="square" stroke-dashoffset="0" stroke-dasharray="none" stroke="black" shape-rendering="auto" image-rendering="auto" height="111.48" font-weight="normal" font-style="normal" font-size="12" font-family="'Dialog'" fill-opacity="1" fill="black" color-rendering="auto" color-interpolation="auto"><g><g stroke="white" fill="white"><rect y="0" x="0" width="7620" stroke="none" height="3716"/></g><g transform="translate(32866,32758)" text-rendering="geometricPrecision" stroke-width="44" stroke-linejoin="round" stroke-linecap="round"><line y2="-30850" y1="-31419" x2="-30792" x1="-31777" fill="none"/><line y2="-29715" y1="-30850" x2="-30792" x1="-30792" fill="none"/><line y2="-31419" y1="-30850" x2="-31777" x1="-32762" fill="none"/><line y2="-29146" y1="-29715" x2="-31777" x1="-30792" fill="none"/><line y2="-30850" y1="-29715" x2="-32762" x1="-32762" fill="none"/><line y2="-29715" y1="-29146" x2="-32762" x1="-31777" fill="none"/><line y2="-31376" y1="-30850" x2="-29885" x1="-30792" fill="none"/><line y2="-30850" y1="-31376" x2="-28978" x1="-29885" fill="none"/><line y2="-31376" y1="-30850" x2="-28071" x1="-28978" fill="none"/><line y2="-30960" y1="-31376" x2="-27352" x1="-28071" fill="none"/><line y2="-31376" y1="-30960" x2="-26257" x1="-26976" fill="none"/><line y2="-30850" y1="-31376" x2="-25350" x1="-26257" fill="none"/><line y2="-32202" y1="-31376" x2="-28140" x1="-28140" fill="none"/><line y2="-32202" y1="-31376" x2="-28002" x1="-28002" fill="none"/><text y="-30671" xml:space="preserve" x="-27317" stroke="none" font-size="433.3333" font-family="sans-serif">O</text><text y="-32242" xml:space="preserve" x="-28224" stroke="none" font-size="433.3333" font-family="sans-serif">O</text></g></g></svg>